<?xml version="1.0" encoding="utf-8"?>
<!-- Generator: Adobe Illustrator 26.0.3, SVG Export Plug-In . SVG Version: 6.00 Build 0)  -->
<svg version="1.1" id="Camada_1" xmlns="http://www.w3.org/2000/svg" xmlns:xlink="http://www.w3.org/1999/xlink" x="0px" y="0px"
	 viewBox="0 0 595.3 841.9" style="enable-background:new 0 0 595.3 841.9;" xml:space="preserve">
<style type="text/css">
	.st0{display:none;}
	.st1{display:inline;fill:#263D8C;}
	.st2{display:inline;}
	.st3{fill:#EA5A14;}
	.st4{fill:#263D8C;}
	.st5{display:inline;fill:none;stroke:#284394;stroke-width:3;stroke-miterlimit:10;}
	.st6{display:inline;fill:none;}
	.st7{fill:#1A1A1A;stroke:#000000;stroke-miterlimit:10;}
	.st8{fill:#FEFFFF;}
</style>
<g class="st0">
	<path class="st1" d="M1413.2,231.1l-4.5-4.5c9.6-6.3,21.6-13.1,31.3-16.7c-9.6-3.6-21.5-10.1-31.1-16.3l4.3-4.3l3.6,7.8
		c0.4-6.2,3-14.3,5.8-20.2c-5.9,2.7-14,5.3-20.2,5.8l7.8,3.6l-4.2,4.2c-6.2-9.6-12.9-21.4-16.4-30.9c-3.6,9.7-10.2,21.7-16.4,31.3
		l-4.6-4.6l7.8-3.6c-6.2-0.4-14.3-3-20.2-5.8c2.7,5.9,5.3,14,5.8,20.2l3.6-7.8l4.5,4.5c-9.5,6.2-21.2,12.8-30.7,16.3
		c9.5,3.5,21.3,10,30.9,16.2l-4.7,4.7l-3.6-7.8c-0.4,6.2-3,14.3-5.8,20.2c5.9-2.7,14-5.3,20.2-5.8l-7.8-3.6l4.7-4.7
		c6.2,9.6,13,21.5,16.5,31.1c3.5-9.5,9.9-21.2,16-30.7l4.4,4.4l-7.8,3.6c6.2,0.4,14.3,3,20.2,5.8c-2.7-5.9-5.3-14-5.8-20.2
		L1413.2,231.1z M1394.5,212.4h19.4c-0.5,5.2-2.5,9.9-5.7,13.7L1394.5,212.4z M1413.9,208.1h-19.4l13.9-13.9
		C1411.5,198.1,1413.5,202.9,1413.9,208.1z M1391.5,205.1v-19.3c5.2,0.4,10,2.4,13.8,5.4L1391.5,205.1z M1387.2,185.8v19.2
		l-13.6-13.6C1377.4,188.4,1382,186.3,1387.2,185.8z M1384.1,208.1h-18.8c0.4-5.1,2.3-9.7,5.3-13.5L1384.1,208.1z M1365.4,212.4
		h18.8l-13.4,13.4C1367.8,222,1365.8,217.4,1365.4,212.4z M1387.2,215.4v18.9c-5.1-0.5-9.7-2.5-13.4-5.5L1387.2,215.4z
		 M1391.5,234.4v-18.9l13.7,13.7C1401.3,232.1,1396.6,234,1391.5,234.4z"/>
	<g class="st2">
		<circle class="st3" cx="1389.3" cy="210.2" r="5.2"/>
		<path class="st4" d="M1389.3,216.3c-3.3,0-6-2.7-6-6s2.7-6,6-6c3.3,0,6,2.7,6,6S1392.6,216.3,1389.3,216.3z M1389.3,205.9
			c-2.4,0-4.3,1.9-4.3,4.3s1.9,4.3,4.3,4.3c2.4,0,4.3-1.9,4.3-4.3S1391.7,205.9,1389.3,205.9z"/>
	</g>
	<line class="st5" x1="1462.1" y1="156.1" x2="1462.1" y2="263.6"/>
	<g class="st2">
		<g>
			<path class="st3" d="M1488.5,228.7v-45.3h0.1l24.2,34.3l-3.7-0.8l24.1-33.4h0.1v45.3h-8.6v-25.9l0.5,4.4l-14.7,20.9h-0.1
				l-15.1-20.9l1.5-4.1v25.6H1488.5z"/>
			<path class="st3" d="M1552.3,212.7c0,1.4,0.4,2.7,1.2,4c0.8,1.3,1.9,2.3,3.3,3.1c1.4,0.8,2.8,1.2,4.5,1.2c1.8,0,3.3-0.4,4.7-1.2
				c1.4-0.8,2.5-1.8,3.3-3.1c0.8-1.3,1.2-2.6,1.2-4v-27.4h8.4v27.6c0,3.2-0.8,6-2.4,8.5c-1.6,2.5-3.7,4.4-6.4,5.8
				c-2.7,1.4-5.7,2.1-8.9,2.1c-3.2,0-6.2-0.7-8.8-2.1c-2.7-1.4-4.8-3.3-6.4-5.8c-1.6-2.5-2.4-5.3-2.4-8.5v-27.6h8.6V212.7z"/>
			<path class="st3" d="M1595.9,185.3l12.7,31.3l-5-1l11.5-30.3h10.2l-19.8,45.5l-19.8-45.5H1595.9z"/>
			<path class="st4" d="M1628.1,228.7l19.6-45.2h0.5l19.6,45.2h-9.9l-12.5-31.8l6.2-4.3l-15,36H1628.1z M1641.5,213h13.1l3,7.2
				h-18.7L1641.5,213z"/>
			<path class="st4" d="M1674.2,185.3h8.6v35.2h20.4v8.3h-29V185.3z"/>
			<path class="st4" d="M1712.2,185.3h8.6v35.2h20.4v8.3h-29V185.3z"/>
		</g>
	</g>
</g>
<g class="st0">
	<path class="st1" d="M1430.4,418.8l-4.5-4.5c9.6-6.3,21.6-13.1,31.3-16.7c-9.6-3.6-21.5-10.1-31.1-16.3l4.3-4.3l3.6,7.8
		c0.4-6.2,3-14.3,5.8-20.2c-5.9,2.7-14,5.3-20.2,5.8l7.8,3.6l-4.2,4.2c-6.2-9.6-12.9-21.4-16.4-30.9c-3.6,9.7-10.2,21.7-16.4,31.3
		l-4.6-4.6l7.8-3.6c-6.2-0.4-14.3-3-20.2-5.8c2.7,5.9,5.3,14,5.8,20.2l3.6-7.8l4.5,4.5c-9.5,6.2-21.2,12.8-30.7,16.3
		c9.5,3.5,21.3,10,30.9,16.2l-4.7,4.7l-3.6-7.8c-0.4,6.2-3,14.3-5.8,20.2c5.9-2.7,14-5.3,20.2-5.8l-7.8-3.6l4.7-4.7
		c6.2,9.6,13,21.5,16.5,31.1c3.5-9.5,9.9-21.2,16-30.7l4.4,4.4l-7.8,3.6c6.2,0.4,14.3,3,20.2,5.8c-2.7-5.9-5.3-14-5.8-20.2
		L1430.4,418.8z M1411.7,400.1h19.4c-0.5,5.2-2.5,9.9-5.7,13.7L1411.7,400.1z M1431.1,395.8h-19.4l13.9-13.9
		C1428.7,385.8,1430.7,390.6,1431.1,395.8z M1408.6,392.8v-19.3c5.2,0.4,10,2.4,13.8,5.4L1408.6,392.8z M1404.4,373.6v19.2
		l-13.6-13.6C1394.5,376.1,1399.2,374.1,1404.4,373.6z M1401.3,395.8h-18.8c0.4-5.1,2.3-9.7,5.3-13.5L1401.3,395.8z M1382.5,400.1
		h18.8l-13.4,13.4C1384.9,409.8,1383,405.2,1382.5,400.1z M1404.4,403.2v18.9c-5.1-0.5-9.7-2.5-13.4-5.5L1404.4,403.2z
		 M1408.6,422.1v-18.9l13.7,13.7C1418.5,419.8,1413.8,421.7,1408.6,422.1z"/>
	<g class="st2">
		<circle class="st3" cx="1406.5" cy="398" r="5.2"/>
		<path class="st4" d="M1406.5,404c-3.3,0-6-2.7-6-6c0-3.3,2.7-6,6-6s6,2.7,6,6C1412.5,401.3,1409.8,404,1406.5,404z M1406.5,393.6
			c-2.4,0-4.3,1.9-4.3,4.3c0,2.4,1.9,4.3,4.3,4.3c2.4,0,4.3-1.9,4.3-4.3C1410.8,395.6,1408.9,393.6,1406.5,393.6z"/>
	</g>
	<g class="st2">
		<g>
			<path class="st3" d="M1471.3,416.5v-45.3h0.1l24.2,34.3l-3.7-0.8l24.1-33.4h0.1v45.3h-8.6v-25.9l0.5,4.4l-14.7,20.9h-0.1
				l-15.1-20.9l1.5-4.1v25.6H1471.3z"/>
			<path class="st3" d="M1535.1,400.4c0,1.4,0.4,2.7,1.2,4c0.8,1.3,1.9,2.3,3.3,3.1c1.4,0.8,2.8,1.2,4.5,1.2c1.8,0,3.3-0.4,4.7-1.2
				c1.4-0.8,2.5-1.8,3.3-3.1c0.8-1.3,1.2-2.6,1.2-4V373h8.4v27.6c0,3.2-0.8,6-2.4,8.5c-1.6,2.5-3.7,4.4-6.4,5.8
				c-2.7,1.4-5.7,2.1-8.9,2.1c-3.2,0-6.2-0.7-8.8-2.1c-2.7-1.4-4.8-3.3-6.4-5.8c-1.6-2.5-2.4-5.3-2.4-8.5V373h8.6V400.4z"/>
			<path class="st3" d="M1578.7,373l12.7,31.3l-5-1L1598,373h10.2l-19.8,45.5l-19.8-45.5H1578.7z"/>
			<path class="st4" d="M1610.9,416.5l19.6-45.2h0.5l19.6,45.2h-9.9l-12.5-31.8l6.2-4.3l-15,36H1610.9z M1624.3,400.8h13.1l3,7.2
				h-18.7L1624.3,400.8z"/>
			<path class="st4" d="M1657,373h8.6v35.2h20.4v8.3h-29V373z"/>
			<path class="st4" d="M1695,373h8.6v35.2h20.4v8.3h-29V373z"/>
		</g>
	</g>
</g>
<g class="st0">
	<path class="st6" d="M1510.8,530.4C1510.8,530.4,1510.9,530.4,1510.8,530.4c0.1,0,0.1,0,0.1,0L1510.8,530.4L1510.8,530.4z"/>
	<g class="st2">
		<path class="st4" d="M1571.7,607.9l-4.5-4.5c9.6-6.3,21.6-13.1,31.3-16.7c-9.6-3.6-21.5-10.1-31.1-16.3l4.3-4.3l3.6,7.8
			c0.4-6.2,3-14.3,5.8-20.2c-5.9,2.7-14,5.3-20.2,5.8l7.8,3.6l-4.2,4.2c-6.2-9.6-12.9-21.4-16.4-30.9c-3.6,9.7-10.2,21.7-16.4,31.3
			l-4.6-4.6l7.8-3.6c-6.2-0.4-14.3-3-20.2-5.8c2.7,5.9,5.3,14,5.8,20.2l3.6-7.8l4.5,4.5c-9.5,6.2-21.2,12.8-30.7,16.3
			c9.5,3.5,21.3,10,30.9,16.2l-4.7,4.7l-3.6-7.8c-0.4,6.2-3,14.3-5.8,20.2c5.9-2.7,14-5.3,20.2-5.8l-7.8-3.6l4.7-4.7
			c6.2,9.6,13,21.5,16.5,31.1c3.5-9.5,9.9-21.2,16-30.7l4.4,4.4l-7.8,3.6c6.2,0.4,14.3,3,20.2,5.8c-2.7-5.9-5.3-14-5.8-20.2
			L1571.7,607.9z M1553,589.2h19.4c-0.5,5.2-2.5,9.9-5.7,13.7L1553,589.2z M1572.5,584.9H1553l13.9-13.9
			C1570,574.9,1572,579.7,1572.5,584.9z M1550,581.9v-19.3c5.2,0.4,10,2.4,13.8,5.4L1550,581.9z M1545.7,562.6v19.2l-13.6-13.6
			C1535.9,565.2,1540.6,563.1,1545.7,562.6z M1542.7,584.9h-18.8c0.4-5.1,2.3-9.7,5.3-13.5L1542.7,584.9z M1523.9,589.2h18.8
			l-13.4,13.4C1526.3,598.8,1524.4,594.2,1523.9,589.2z M1545.7,592.2v18.9c-5.1-0.5-9.7-2.5-13.4-5.5L1545.7,592.2z M1550,611.2
			v-18.9l13.7,13.7C1559.8,608.9,1555.1,610.8,1550,611.2z"/>
		<g>
			<circle class="st3" cx="1547.8" cy="587" r="5.2"/>
			<path class="st4" d="M1547.8,593.1c-3.3,0-6-2.7-6-6c0-3.3,2.7-6,6-6s6,2.7,6,6C1553.9,590.4,1551.2,593.1,1547.8,593.1z
				 M1547.8,582.7c-2.4,0-4.3,1.9-4.3,4.3s1.9,4.3,4.3,4.3c2.4,0,4.3-1.9,4.3-4.3S1550.2,582.7,1547.8,582.7z"/>
		</g>
	</g>
	<g class="st2">
		<g>
			<path class="st4" d="M1447.3,686v-39.2h0.1l20.9,29.7l-3.2-0.7l20.9-29h0.1V686h-7.4v-22.5l0.5,3.8l-12.7,18.1h-0.1l-13.1-18.1
				l1.3-3.5V686H1447.3z"/>
			<path class="st4" d="M1502.6,672.1c0,1.2,0.4,2.3,1.1,3.4c0.7,1.1,1.7,2,2.8,2.7c1.2,0.7,2.5,1,3.9,1c1.5,0,2.9-0.3,4.1-1
				c1.2-0.7,2.1-1.6,2.8-2.7s1-2.2,1-3.4v-23.7h7.3v23.9c0,2.8-0.7,5.2-2,7.3c-1.4,2.1-3.2,3.8-5.5,5c-2.3,1.2-4.9,1.8-7.7,1.8
				c-2.8,0-5.3-0.6-7.6-1.8c-2.3-1.2-4.1-2.9-5.5-5s-2-4.6-2-7.3v-23.9h7.4V672.1z"/>
			<path class="st4" d="M1540.4,648.3l11,27.1l-4.3-0.9l10-26.2h8.8l-17.2,39.4l-17.2-39.4H1540.4z"/>
		</g>
	</g>
	<g class="st2">
		<g>
			<path class="st3" d="M1555.8,687.7l13.4-30.9h0.3l13.4,30.9h-6.8l-8.6-21.7l4.2-2.9l-10.3,24.6H1555.8z M1565,677h8.9l2.1,4.9
				h-12.8L1565,677z"/>
			<path class="st3" d="M1587.3,658h5.9v24.1h14v5.7h-19.8V658z"/>
			<path class="st3" d="M1613.3,658h5.9v24.1h14v5.7h-19.8V658z"/>
		</g>
	</g>
</g>
<rect x="-615.3" class="st7" width="595.3" height="841.9"/>
<path class="st8" d="M-499.5,456.9V385h0.1l38.4,54.4l-5.8-1.3l38.3-53.1h0.2v71.9H-442v-41.2l0.8,7l-23.4,33.2h-0.2l-24-33.2
	l2.3-6.5v40.6H-499.5z"/>
<path class="st8" d="M-405.3,429.6c0,2.2,0.7,4.3,2,6.3c1.3,2,3,3.6,5.2,4.9c2.2,1.3,4.5,1.9,7.1,1.9c2.8,0,5.3-0.6,7.5-1.9
	c2.2-1.3,3.9-2.9,5.2-4.9c1.3-2,1.9-4.1,1.9-6.3V386h13.4v43.8c0,5.1-1.3,9.6-3.8,13.5c-2.5,3.9-5.9,7-10.1,9.2
	c-4.3,2.2-9,3.3-14.2,3.3c-5.1,0-9.8-1.1-14-3.3c-4.2-2.2-7.6-5.3-10.1-9.2c-2.5-3.9-3.8-8.4-3.8-13.5V386h13.6V429.6z"/>
<path class="st8" d="M-264.2,386.4h13.6v55.9h32.5v13.1h-46.1V386.4z"/>
<path class="st8" d="M-208.2,386.4h13.6v55.9h32.5v13.1h-46.1V386.4z"/>
<path class="st8" d="M-337.6,413l-1.9,49.7l-7.2-1.6L-307,413h16.1l-63.6,72.3l0.6-72.3H-337.6z"/>
<path class="st3" d="M-336.5,427.3l62.1-70.7h0.7l-0.7,70.7H-290l2.5-49.7l12.7-6.7l-48.5,56.3H-336.5z"/>
<rect y="0" class="st7" width="595.3" height="841.9"/>
<path class="st8" d="M163.6,444.7v-56.8h0.1l30.3,43l-4.6-1l30.3-42h0.1v56.8h-10.8v-32.6l0.7,5.6L191.3,444h-0.1l-19-26.3l1.9-5.1
	v32.1H163.6z"/>
<path class="st8" d="M238.1,423.1c0,1.7,0.5,3.4,1.6,5c1,1.6,2.4,2.9,4.1,3.9c1.7,1,3.6,1.5,5.6,1.5c2.2,0,4.2-0.5,5.9-1.5
	s3.1-2.3,4.1-3.9c1-1.6,1.5-3.2,1.5-5v-34.4h10.6v34.7c0,4-1,7.6-3,10.6c-2,3.1-4.7,5.5-8,7.3c-3.4,1.8-7.1,2.6-11.2,2.6
	c-4.1,0-7.8-0.9-11.1-2.6c-3.3-1.8-6-4.2-8-7.3c-2-3.1-3-6.6-3-10.6v-34.7h10.8V423.1z"/>
<path class="st8" d="M349.7,389h10.8v44.2h25.7v10.4h-36.4V389z"/>
<path class="st8" d="M394,389h10.8v44.2h25.7v10.4H394V389z"/>
<g>
	<path class="st8" d="M291.7,410l-1.5,39.3l-5.7-1.3l31.4-38.1h12.8l-50.3,57.1l0.5-57.1H291.7z"/>
	<path class="st3" d="M292.5,421.3l49.1-55.9h0.6l-0.6,55.9h-12.3l2-39.3l10-5.3l-38.3,44.6H292.5z"/>
</g>
<rect x="615.3" y="0" class="st7" width="595.3" height="841.9"/>
<rect x="1230.6" y="0" class="st7" width="595.3" height="841.9"/>
<path class="st8" d="M1508.2,413l-1.9,49.7l-7.2-1.6l39.7-48.1h16.1l-63.6,72.3l0.6-72.3H1508.2z"/>
<path class="st3" d="M1509.3,427.3l62.1-70.7h0.7l-0.7,70.7h-15.5l2.5-49.7l12.7-6.7l-48.5,56.3H1509.3z"/>
<path class="st8" d="M806.3,434.8v-41.4h0.1l22.1,31.3l-3.3-0.8l22-30.6h0.1v41.4h-7.8v-23.7l0.5,4l-13.4,19.1h-0.1l-13.8-19.1
	l1.3-3.7v23.4H806.3z"/>
<path class="st8" d="M860.5,419c0,1.3,0.4,2.5,1.1,3.6c0.8,1.2,1.8,2.1,3,2.8c1.2,0.7,2.6,1.1,4.1,1.1c1.6,0,3.1-0.4,4.3-1.1
	c1.3-0.7,2.3-1.7,3-2.8c0.7-1.2,1.1-2.4,1.1-3.6V394h7.7v25.2c0,2.9-0.7,5.5-2.2,7.7c-1.4,2.2-3.4,4-5.8,5.3
	c-2.4,1.3-5.2,1.9-8.2,1.9c-3,0-5.6-0.6-8.1-1.9c-2.4-1.3-4.4-3-5.8-5.3c-1.4-2.2-2.2-4.8-2.2-7.7V394h7.8V419z"/>
<path class="st8" d="M941.7,394.2h7.8v32.2h18.7v7.6h-26.5V394.2z"/>
<path class="st8" d="M973.9,394.2h7.8v32.2h18.7v7.6h-26.5V394.2z"/>
<g>
	<path class="st8" d="M899.5,409.5l-1.1,28.6l-4.1-0.9l22.8-27.7h9.3l-36.6,41.6l0.3-41.6H899.5z"/>
	<path class="st3" d="M900.1,417.7l35.7-40.7h0.4l-0.4,40.7h-8.9l1.4-28.6l7.3-3.8l-27.9,32.4H900.1z"/>
</g>
</svg>
